<svg width="55" height="46" viewBox="0 0 55 46" fill="none" xmlns="http://www.w3.org/2000/svg">
<path d="M13.9583 14C12.4687 14 11.1936 13.5594 10.1328 12.6781C9.07204 11.7969 8.54166 10.7375 8.54166 9.5V5C8.54166 3.7625 9.07204 2.70312 10.1328 1.82187C11.1936 0.940625 12.4687 0.5 13.9583 0.5H41.0417C42.5312 0.5 43.8064 0.940625 44.8672 1.82187C45.9279 2.70312 46.4583 3.7625 46.4583 5V9.5C46.4583 10.7375 45.9279 11.7969 44.8672 12.6781C43.8064 13.5594 42.5312 14 41.0417 14H13.9583ZM13.9583 9.5H41.0417V5H13.9583V9.5ZM5.83332 45.5C4.34374 45.5 3.06857 45.0594 2.0078 44.1781C0.947038 43.2969 0.416656 42.2375 0.416656 41V38.75H54.5833V41C54.5833 42.2375 54.0529 43.2969 52.9922 44.1781C51.9314 45.0594 50.6562 45.5 49.1667 45.5H5.83332ZM0.416656 36.5L9.82812 18.8937C10.2795 18.0688 10.9566 17.4219 11.8594 16.9531C12.7621 16.4844 13.7326 16.25 14.7708 16.25H40.2292C41.2674 16.25 42.2378 16.4844 43.1406 16.9531C44.0434 17.4219 44.7205 18.0688 45.1719 18.8937L54.5833 36.5H0.416656ZM18.0208 32H20.7292C21.0903 32 21.4062 31.8875 21.6771 31.6625C21.9479 31.4375 22.0833 31.175 22.0833 30.875C22.0833 30.575 21.9479 30.3125 21.6771 30.0875C21.4062 29.8625 21.0903 29.75 20.7292 29.75H18.0208C17.6597 29.75 17.3437 29.8625 17.0729 30.0875C16.8021 30.3125 16.6667 30.575 16.6667 30.875C16.6667 31.175 16.8021 31.4375 17.0729 31.6625C17.3437 31.8875 17.6597 32 18.0208 32ZM18.0208 27.5H20.7292C21.0903 27.5 21.4062 27.3875 21.6771 27.1625C21.9479 26.9375 22.0833 26.675 22.0833 26.375C22.0833 26.075 21.9479 25.8125 21.6771 25.5875C21.4062 25.3625 21.0903 25.25 20.7292 25.25H18.0208C17.6597 25.25 17.3437 25.3625 17.0729 25.5875C16.8021 25.8125 16.6667 26.075 16.6667 26.375C16.6667 26.675 16.8021 26.9375 17.0729 27.1625C17.3437 27.3875 17.6597 27.5 18.0208 27.5ZM18.0208 23H20.7292C21.0903 23 21.4062 22.8875 21.6771 22.6625C21.9479 22.4375 22.0833 22.175 22.0833 21.875C22.0833 21.575 21.9479 21.3125 21.6771 21.0875C21.4062 20.8625 21.0903 20.75 20.7292 20.75H18.0208C17.6597 20.75 17.3437 20.8625 17.0729 21.0875C16.8021 21.3125 16.6667 21.575 16.6667 21.875C16.6667 22.175 16.8021 22.4375 17.0729 22.6625C17.3437 22.8875 17.6597 23 18.0208 23ZM26.1458 32H28.8542C29.2153 32 29.5312 31.8875 29.8021 31.6625C30.0729 31.4375 30.2083 31.175 30.2083 30.875C30.2083 30.575 30.0729 30.3125 29.8021 30.0875C29.5312 29.8625 29.2153 29.75 28.8542 29.75H26.1458C25.7847 29.75 25.4687 29.8625 25.1979 30.0875C24.9271 30.3125 24.7917 30.575 24.7917 30.875C24.7917 31.175 24.9271 31.4375 25.1979 31.6625C25.4687 31.8875 25.7847 32 26.1458 32ZM26.1458 27.5H28.8542C29.2153 27.5 29.5312 27.3875 29.8021 27.1625C30.0729 26.9375 30.2083 26.675 30.2083 26.375C30.2083 26.075 30.0729 25.8125 29.8021 25.5875C29.5312 25.3625 29.2153 25.25 28.8542 25.25H26.1458C25.7847 25.25 25.4687 25.3625 25.1979 25.5875C24.9271 25.8125 24.7917 26.075 24.7917 26.375C24.7917 26.675 24.9271 26.9375 25.1979 27.1625C25.4687 27.3875 25.7847 27.5 26.1458 27.5ZM26.1458 23H28.8542C29.2153 23 29.5312 22.8875 29.8021 22.6625C30.0729 22.4375 30.2083 22.175 30.2083 21.875C30.2083 21.575 30.0729 21.3125 29.8021 21.0875C29.5312 20.8625 29.2153 20.75 28.8542 20.75H26.1458C25.7847 20.75 25.4687 20.8625 25.1979 21.0875C24.9271 21.3125 24.7917 21.575 24.7917 21.875C24.7917 22.175 24.9271 22.4375 25.1979 22.6625C25.4687 22.8875 25.7847 23 26.1458 23ZM34.2708 32H36.9792C37.3403 32 37.6562 31.8875 37.9271 31.6625C38.1979 31.4375 38.3333 31.175 38.3333 30.875C38.3333 30.575 38.1979 30.3125 37.9271 30.0875C37.6562 29.8625 37.3403 29.75 36.9792 29.75H34.2708C33.9097 29.75 33.5937 29.8625 33.3229 30.0875C33.0521 30.3125 32.9167 30.575 32.9167 30.875C32.9167 31.175 33.0521 31.4375 33.3229 31.6625C33.5937 31.8875 33.9097 32 34.2708 32ZM34.2708 27.5H36.9792C37.3403 27.5 37.6562 27.3875 37.9271 27.1625C38.1979 26.9375 38.3333 26.675 38.3333 26.375C38.3333 26.075 38.1979 25.8125 37.9271 25.5875C37.6562 25.3625 37.3403 25.25 36.9792 25.25H34.2708C33.9097 25.25 33.5937 25.3625 33.3229 25.5875C33.0521 25.8125 32.9167 26.075 32.9167 26.375C32.9167 26.675 33.0521 26.9375 33.3229 27.1625C33.5937 27.3875 33.9097 27.5 34.2708 27.5ZM34.2708 23H36.9792C37.3403 23 37.6562 22.8875 37.9271 22.6625C38.1979 22.4375 38.3333 22.175 38.3333 21.875C38.3333 21.575 38.1979 21.3125 37.9271 21.0875C37.6562 20.8625 37.3403 20.75 36.9792 20.75H34.2708C33.9097 20.75 33.5937 20.8625 33.3229 21.0875C33.0521 21.3125 32.9167 21.575 32.9167 21.875C32.9167 22.175 33.0521 22.4375 33.3229 22.6625C33.5937 22.8875 33.9097 23 34.2708 23Z" fill="#78A75A"/>
</svg>
