<svg width="50" height="49" viewBox="0 0 50 49" fill="none" xmlns="http://www.w3.org/2000/svg">
<path d="M25 42.875C20.2083 42.875 16.033 41.3182 12.474 38.2047C8.91493 35.0911 6.875 31.2035 6.35417 26.5417H10.625C11.1111 30.0806 12.717 33.0069 15.4427 35.3208C18.1684 37.6347 21.3542 38.7917 25 38.7917C29.0625 38.7917 32.5087 37.405 35.3385 34.6318C38.1684 31.8585 39.5833 28.4813 39.5833 24.5C39.5833 20.5188 38.1684 17.1415 35.3385 14.3682C32.5087 11.595 29.0625 10.2083 25 10.2083C22.6042 10.2083 20.3646 10.7528 18.2812 11.8417C16.1979 12.9306 14.4444 14.4278 13.0208 16.3333H18.75V20.4167H6.25V8.16667H10.4167V12.9646C12.1875 10.7868 14.349 9.10243 16.901 7.91146C19.4531 6.72049 22.1528 6.125 25 6.125C27.6042 6.125 30.0434 6.6099 32.3177 7.57969C34.592 8.54948 36.5712 9.85955 38.2552 11.5099C39.9392 13.1602 41.276 15.0998 42.2656 17.3286C43.2552 19.5575 43.75 21.9479 43.75 24.5C43.75 27.0521 43.2552 29.4425 42.2656 31.6714C41.276 33.9002 39.9392 35.8398 38.2552 37.4901C36.5712 39.1404 34.592 40.4505 32.3177 41.4203C30.0434 42.3901 27.6042 42.875 25 42.875ZM30.8333 33.075L22.9167 25.3167V14.2917H27.0833V23.6833L33.75 30.2167L30.8333 33.075Z" fill="black"/>
</svg>
