<svg width="42" height="42" viewBox="0 0 42 42" fill="none" xmlns="http://www.w3.org/2000/svg">
<path d="M0.166672 16.8333C0.166672 13.3611 0.939241 10.1753 2.48438 7.27604C4.02952 4.37674 6.10417 1.97222 8.70834 0.0625L11.1563 3.39583C9.07292 4.92361 7.41494 6.85069 6.1823 9.17708C4.94966 11.5035 4.33334 14.0556 4.33334 16.8333H0.166672ZM37.6667 16.8333C37.6667 14.0556 37.0504 11.5035 35.8177 9.17708C34.5851 6.85069 32.9271 4.92361 30.8438 3.39583L33.2917 0.0625C35.8958 1.97222 37.9705 4.37674 39.5156 7.27604C41.0608 10.1753 41.8333 13.3611 41.8333 16.8333H37.6667ZM4.33334 35.5833V31.4167H8.50001V16.8333C8.50001 13.9514 9.36806 11.3906 11.1042 9.15104C12.8403 6.91146 15.0972 5.44444 17.875 4.75V3.29167C17.875 2.42361 18.1788 1.68576 18.7865 1.07812C19.3941 0.470486 20.132 0.166667 21 0.166667C21.8681 0.166667 22.6059 0.470486 23.2135 1.07812C23.8212 1.68576 24.125 2.42361 24.125 3.29167V4.75C26.9028 5.44444 29.1597 6.91146 30.8958 9.15104C32.632 11.3906 33.5 13.9514 33.5 16.8333V31.4167H37.6667V35.5833H4.33334ZM21 41.8333C19.8542 41.8333 18.8733 41.4254 18.0573 40.6094C17.2413 39.7934 16.8333 38.8125 16.8333 37.6667H25.1667C25.1667 38.8125 24.7587 39.7934 23.9427 40.6094C23.1267 41.4254 22.1458 41.8333 21 41.8333ZM12.6667 31.4167H29.3333V16.8333C29.3333 14.5417 28.5174 12.5799 26.8854 10.9479C25.2535 9.31597 23.2917 8.5 21 8.5C18.7083 8.5 16.7465 9.31597 15.1146 10.9479C13.4826 12.5799 12.6667 14.5417 12.6667 16.8333V31.4167Z" fill="black"/>
</svg>
